<svg width="154" height="154" viewBox="0 0 154 154" fill="none" xmlns="http://www.w3.org/2000/svg">
<path fill-rule="evenodd" clip-rule="evenodd" d="M9.73438 17.1675H18.0388V24.9931C18.0388 31.8305 23.6215 37.4132 30.4589 37.4132C37.2963 37.4132 42.879 31.8305 42.879 24.9931V17.1675H64.5799V24.9931C64.5799 31.8305 70.1626 37.4132 77 37.4132C83.8374 37.4132 89.4201 31.8305 89.4201 24.9931V17.1675H111.121V24.9931C111.121 31.8305 116.704 37.4132 123.541 37.4132C130.378 37.4132 135.961 31.8305 135.961 24.9931V17.1675H144.266C149.558 17.1675 153.875 21.4844 153.875 26.7769V45.4089H0.125V26.7769C0.125 21.4844 4.44153 17.1675 9.73438 17.1675ZM123.541 0.125C118.472 0.125 114.324 4.27273 114.324 9.34199V24.9928C114.324 30.0624 118.472 34.2098 123.541 34.2098C128.61 34.2098 132.758 30.062 132.758 24.9928V9.34199C132.758 4.27241 128.61 0.125 123.541 0.125ZM30.4589 0.125C25.3893 0.125 21.2419 4.27273 21.2419 9.34199V24.9928C21.2419 30.0624 25.3896 34.2098 30.4589 34.2098C35.5282 34.2098 39.6759 30.062 39.6759 24.9928V9.34199C39.6759 4.27241 35.5282 0.125 30.4589 0.125ZM77 0.125C71.9304 0.125 67.783 4.27273 67.783 9.34199V24.9928C67.783 30.0624 71.9307 34.2098 77 34.2098C82.0693 34.2098 86.217 30.062 86.217 24.9928V9.34199C86.217 4.27241 82.0693 0.125 77 0.125ZM0.125 48.612V144.266C0.125 149.558 4.44185 153.875 9.73438 153.875H144.266C149.558 153.875 153.875 149.558 153.875 144.266V48.612H0.125ZM23.98 112.56C22.3409 106.443 25.7731 100.499 31.5028 98.9641C37.1893 97.4404 42.9514 96.1726 48.5812 94.4567L54.3369 115.937C48.6033 117.266 42.9793 119.049 37.2928 120.573C31.563 122.108 25.6187 118.676 23.98 112.56ZM57.2947 141.81C55.0413 143.111 52.1335 142.332 50.8327 140.079L40.9142 122.899C44.0466 122.021 47.1693 121.097 50.3109 120.253L59.026 135.348C60.3268 137.601 59.5478 140.509 57.2944 141.81L57.2947 141.81ZM57.4683 115.265L51.6293 93.4727C66.6408 88.3195 76.6963 79.977 82.0721 72.1732L94.4827 118.49C85.9252 114.419 73.0454 112.222 57.4686 115.265H57.4683ZM104.334 126.639C102.101 127.237 99.7838 125.9 99.1855 123.666L83.5565 65.3381C82.9581 63.1048 84.2958 60.788 86.529 60.1897C88.7622 59.5913 91.079 60.9293 91.6774 63.1622L107.306 121.49C107.905 123.724 106.567 126.04 104.334 126.639ZM107.893 95.7293L104.289 97.8527L100.883 85.142L105.066 85.1792C105.796 85.1856 106.409 85.6609 106.598 86.3663L108.627 93.9352C108.816 94.6406 108.522 95.359 107.893 95.7296V95.7293ZM108.07 77.4638C107.307 77.0215 107.046 76.0439 107.489 75.2806L113.296 65.2221C113.738 64.4585 114.716 64.1981 115.479 64.6404C116.243 65.0828 116.503 66.0604 116.061 66.824L110.254 76.8824C109.811 77.6461 108.834 77.9065 108.07 77.4641V77.4638ZM127.178 108.314C126.736 109.077 125.758 109.338 124.995 108.895L114.937 103.088C114.173 102.646 113.912 101.668 114.355 100.905C114.797 100.141 115.775 99.8809 116.538 100.323L126.597 106.131C127.36 106.573 127.621 107.55 127.178 108.314ZM129.243 86.0107L118.024 89.0168C117.171 89.2449 116.294 88.7378 116.066 87.8845C115.838 87.0312 116.345 86.1542 117.198 85.9265L128.417 82.9203C129.27 82.6923 130.147 83.1993 130.375 84.0526C130.603 84.906 130.096 85.783 129.243 86.0107Z" fill="white"/>
</svg>
