<svg width="96" height="96" viewBox="0 0 96 96" fill="none" xmlns="http://www.w3.org/2000/svg">
<path d="M82.8036 49.7025H71.7373V53.3381H74.3679H80.1673H82.8036V49.7025ZM61.3892 49.7025H50.3248V53.3381H52.9554H58.7548H61.3911V49.7025H61.3892ZM49.9423 75.7144H61.7736V72.0788H58.7548H52.9554H49.9423V75.7144ZM71.3548 75.7144H83.1861V72.0788H80.1673H74.3679H71.3548V75.7144ZM75.3092 55.2131V70.2019H79.2317V55.2131H75.3092ZM53.8967 55.2131V70.2019H57.8192V55.2131H53.8967ZM54.4648 7.16626H44.1954L47.4804 10.6894H47.4748C47.8104 11.0513 47.8104 11.6081 47.4692 11.9644L44.2104 15.4144H54.4629V7.16626H54.4648ZM56.3417 21.3356L56.9529 20.8838C57.2979 20.6288 57.7611 20.6438 58.0798 20.895L58.6742 21.3356V7.16626H56.3417V16.35V21.3356ZM58.9461 35.9531C58.5954 35.6025 58.1061 35.385 57.5698 35.385C57.0336 35.385 56.5498 35.6025 56.1992 35.9531C55.8486 36.3038 55.6311 36.7931 55.6311 37.3238C55.6311 37.86 55.8486 38.3494 56.1992 38.7C56.5498 39.0506 57.0336 39.2681 57.5698 39.2681C58.1061 39.2681 58.5954 39.0506 58.9461 38.7C59.2967 38.3494 59.5142 37.86 59.5142 37.3238C59.5142 36.7931 59.2967 36.3038 58.9461 35.9531ZM57.5679 33.5081C58.6254 33.5081 59.5761 33.9394 60.2679 34.6294C60.9598 35.3194 61.3892 36.2719 61.3892 37.3238C61.3892 38.3813 60.9579 39.3319 60.2679 40.0238C59.5779 40.7156 58.6254 41.145 57.5679 41.145C56.5161 41.145 55.5579 40.7138 54.8679 40.0238C54.1779 39.3338 53.7523 38.3813 53.7523 37.3238C53.7523 36.2719 54.1779 35.3194 54.8679 34.6294C55.5579 33.9394 56.5161 33.5081 57.5679 33.5081ZM42.1761 84.5681V89.4844H89.4148V84.5681H87.8211H42.1761ZM45.5736 77.775V78.615C45.5736 79.7475 45.0954 80.5875 44.3454 81.1988C43.7511 81.6825 42.9842 81.9956 42.1761 82.1775V82.6931H86.8854V77.775H45.5736ZM32.9023 49.7025C32.6736 50.0794 32.4354 50.4413 32.1842 50.7806C32.1317 50.85 32.0773 50.9194 32.0248 50.9888V53.3381H39.9767V49.7025H32.9023ZM21.5323 38.175C21.4948 38.1544 21.4629 38.1281 21.4311 38.0944C21.1704 37.9031 20.8836 37.7869 20.5911 37.7438C20.2836 37.7006 19.9592 37.7438 19.6348 37.8713C18.6617 38.265 17.8067 38.8706 17.1111 39.63C17.0942 39.645 17.0792 39.6619 17.0623 39.6788C16.7642 40.0088 16.4998 40.3706 16.2711 40.7569C16.3836 42.2025 16.7548 45.2156 17.9604 47.9269C19.1829 50.6644 21.2867 53.0925 24.9186 53.0925C26.9379 53.0925 28.8204 51.9863 30.3242 50.1319C30.3448 50.1 30.3729 50.0681 30.3936 50.0419C30.4892 49.92 30.5848 49.8019 30.6748 49.6744C30.9729 49.2713 31.2486 48.8288 31.5148 48.3675C31.5298 48.3244 31.5523 48.2869 31.5786 48.2513C32.6848 46.2469 33.4329 43.755 33.6786 41.0025C33.3711 40.5675 33.0561 40.0556 32.7486 39.4819C30.7723 40.2525 28.9011 40.5656 27.1367 40.4231C25.1154 40.2638 23.2498 39.5138 21.5323 38.175ZM41.4111 42.1294C41.3961 42.2456 41.3736 42.3694 41.3473 42.4856H74.2423L57.5848 30.1125L41.4111 42.1294ZM37.6854 38.0794C37.7379 38.0681 37.7979 38.0588 37.8504 38.0531C39.3973 37.8506 40.4548 38.4844 41.0229 39.5306C41.0979 39.6638 41.1617 39.8025 41.2142 39.945L57.0261 28.1981C57.3711 27.9431 57.8342 27.9581 58.1586 28.2094L77.3773 42.4856H84.0111L58.5298 23.5575C58.4867 23.5313 58.4492 23.505 58.4136 23.4675L57.5098 22.7981L56.6061 23.4675C56.5686 23.505 56.5254 23.5313 56.4842 23.5575L37.7379 37.4831C37.7229 37.68 37.7061 37.8769 37.6854 38.0794ZM35.1242 39.8063C35.2573 39.5456 35.4373 39.3019 35.6511 39.0881C36.6186 33.6506 34.6723 29.9513 31.7811 27.8569C30.6279 27.0225 29.3304 26.4319 28.0067 26.0925C26.6829 25.7475 25.3329 25.6406 24.0898 25.7738C21.8679 26.0025 19.9873 26.985 19.2204 28.665C20.5704 29.5519 21.6167 30.78 22.2823 32.1844C22.9836 33.6506 23.2704 35.31 23.0642 36.9881C24.3711 37.9125 25.7792 38.4394 27.2792 38.5556C28.9742 38.6888 30.8023 38.3213 32.7748 37.4456L32.7804 37.44C33.2473 37.2169 33.8061 37.4081 34.0292 37.875C34.4004 38.6419 34.7679 39.285 35.1242 39.8063ZM40.5823 44.3606C39.5773 45.9863 37.7286 47.2894 35.0698 47.205C34.9536 47.205 34.8354 47.19 34.7192 47.1469C34.5392 47.0831 34.3836 46.9706 34.2786 46.8225C34.1511 47.1675 34.0179 47.5031 33.8698 47.8275H40.9123H49.3892H62.3267H70.7979H83.7392H89.4148V44.3625H40.5823V44.3606ZM36.3411 45.2325C37.7117 44.94 38.6586 44.0681 39.1629 43.0856C39.1836 43.0369 39.2061 42.99 39.2323 42.9413C39.4498 42.4744 39.5717 41.9906 39.5942 41.5388C39.6148 41.1075 39.5454 40.7194 39.3861 40.4231C39.1779 40.0463 38.7486 39.8175 38.0886 39.9075C37.7698 39.9506 37.4717 40.0556 37.2279 40.2113C37.1848 40.2431 37.1436 40.2694 37.1004 40.3013L37.0854 40.3163C37.0104 40.3744 36.9411 40.4381 36.8886 40.5075C36.9373 41.4581 36.8829 42.4106 36.7404 43.3463C36.6429 43.9838 36.5098 44.61 36.3411 45.2325ZM11.4354 43.0163C11.9342 44.0269 12.8923 44.9288 14.2948 45.2325C14.1242 44.61 13.9873 43.9838 13.8917 43.3463C13.7529 42.4106 13.6948 41.46 13.7436 40.5075C13.6592 40.4006 13.5411 40.2994 13.4042 40.2094C13.3198 40.1569 13.2242 40.1025 13.1229 40.0613C13.0967 40.05 13.0704 40.0406 13.0423 40.0294C12.8886 39.9713 12.7179 39.9281 12.5436 39.9075C11.8836 39.8175 11.4598 40.0463 11.2517 40.4231C11.0923 40.7213 11.0229 41.1094 11.0436 41.5388C11.0623 42.0169 11.1954 42.5269 11.4354 43.0163ZM14.2892 38.5575C14.3267 38.5781 14.3698 38.6063 14.4054 38.6325C14.6548 38.7863 14.8779 38.9719 15.0692 39.1856C15.2604 38.9194 15.4629 38.67 15.6804 38.43C15.6917 38.4094 15.7067 38.3869 15.7292 38.3719C16.6123 37.4044 17.7017 36.6394 18.9336 36.1388C19.5598 35.8781 20.2198 35.7994 20.8573 35.8894C20.9904 35.91 21.1236 35.9381 21.2567 35.9738C21.2679 34.9275 21.0336 33.9113 20.5929 32.9869C19.9929 31.7269 19.0086 30.6488 17.7279 29.9475C17.2292 29.8031 16.8036 29.7675 16.4361 29.8256C15.9898 29.895 15.6223 30.1125 15.3261 30.4425C14.9811 30.8306 14.7204 31.3725 14.5292 32.0044C13.9704 33.8213 13.9967 36.3356 14.2892 38.5575ZM32.0248 57.7594L32.4392 57.5363C32.2948 57.5156 32.1579 57.4988 32.0248 57.4838V57.7594ZM22.8823 89.4844L19.3217 83.9194C19.1361 83.7281 19.0292 83.4619 19.0554 83.175L19.1717 81.9094C17.3004 82.1756 15.4254 82.1813 13.5373 82.1906C12.4798 82.1906 11.4167 82.1963 10.3273 82.2544V89.4825H22.8823V89.4844ZM29.9417 81.2306L30.1179 83.0906C30.1292 83.1431 30.1329 83.2031 30.1329 83.2613C30.1329 83.5219 30.0204 83.76 29.8461 83.9306L26.2948 89.4844H34.5973H40.3011V83.6325V82.4156C37.6967 82.6275 35.3586 82.5056 33.0879 82.0594C32.0304 81.8531 30.9879 81.5756 29.9417 81.2306ZM25.7904 79.5188C25.5354 79.6313 25.3067 79.7363 25.1154 79.8431H25.1098L25.0929 79.8544L25.0817 79.86L25.0704 79.8656L25.0592 79.8713L25.0536 79.8769H25.0479L25.0423 79.8825L25.0367 79.8881L25.0311 79.8938L25.0198 79.8994H25.0142L25.0086 79.905L24.9973 79.9106C24.2904 80.3306 23.5836 80.67 22.8823 80.9475L22.8336 80.9681L22.7492 81C22.1904 81.2119 21.6336 81.3881 21.0804 81.5306L20.9417 82.9969L24.5829 88.695L28.2242 82.9969L27.9898 80.5088C27.2736 80.2106 26.5404 79.8806 25.7904 79.5188ZM17.9829 57.51L18.6054 57.855V57.4519C18.4086 57.4669 18.1948 57.4894 17.9829 57.51ZM20.7298 65.4506L16.5036 67.7044C16.0461 67.9444 15.4836 67.7738 15.2379 67.3163C15.1629 67.1719 15.1254 67.0125 15.1311 66.8588L15.2473 57.9675C13.4773 58.3706 11.5967 59.0419 10.0554 60.1256C8.25356 61.4006 6.9298 63.2775 6.90918 66.0244H6.91481V78.615H6.90918V78.63C6.90918 79.1981 7.16418 79.6294 7.5523 79.9219C8.00418 80.2575 8.63043 80.4375 9.31668 80.4431C10.6986 80.3306 12.1236 80.3269 13.5373 80.3213C16.4023 80.31 19.2354 80.3063 21.9673 79.2956L22.0104 79.2806L22.0854 79.2488C22.4998 79.095 22.9086 78.9131 23.3079 78.7125L23.3398 78.6956L23.3717 78.6788L23.3773 78.6731L23.4523 78.6356C23.4898 78.6206 23.5217 78.5981 23.5536 78.5831L23.6023 78.5569C23.6454 78.5363 23.6867 78.5138 23.7242 78.4931L23.7504 78.4763C23.7936 78.45 23.8404 78.4238 23.8892 78.3956L23.8948 78.39H23.9004C23.9529 78.3581 24.0017 78.3319 24.0542 78.3L24.0973 78.2738L24.1086 78.2681H24.1142L24.1667 78.2363L24.1723 78.2306L24.2211 78.2044C24.6467 77.97 25.1717 77.7413 25.7736 77.5125L25.7998 77.5013H25.8054L25.8429 77.4844C26.9211 77.0756 28.2298 76.665 29.5479 76.2506C31.8973 75.5119 34.3048 74.7563 35.2554 74.0925C33.9954 72.8231 31.3648 72.4613 28.2973 72.5456C28.2279 72.5663 28.1586 72.5775 28.0854 72.5775C26.9961 72.615 25.8373 72.7106 24.6617 72.8438C23.5029 72.9769 22.3648 73.1475 21.2754 73.3219C21.1798 73.3425 21.0786 73.3538 20.9773 73.3425C20.9623 73.3425 20.9454 73.3425 20.9286 73.3369C19.0048 73.65 17.1917 74.0006 15.6936 74.2875C14.7429 74.4731 13.9123 74.6325 13.2336 74.7506L12.1442 74.9306V65.7375H14.0211V72.7106C14.4242 72.6356 14.8723 72.5513 15.3448 72.4556C16.7473 72.1838 18.4123 71.865 20.1917 71.5725L20.7298 65.4506ZM21.0223 63.1763V61.5544C21.0223 61.4738 21.0279 61.395 21.0336 61.3144L20.3961 60.9638C20.3436 60.9431 20.2948 60.915 20.2517 60.8831L17.1054 59.1619L17.0211 65.3119L21.0223 63.1763ZM26.7954 68.0381C26.5029 68.145 26.1898 68.2031 25.8598 68.2031H23.7542C23.2592 68.2031 22.7979 68.07 22.3986 67.8413L22.0948 71.28C23.0886 71.1356 24.0992 71.0138 25.1023 70.9181C25.7454 70.8544 26.3886 70.7963 27.0317 70.7588L26.7954 68.0381ZM28.5917 65.0156V65.4731C28.5917 65.7019 28.5654 65.925 28.5073 66.1369L28.9104 70.7231C31.7867 70.7288 34.3479 71.1375 35.9848 72.2963V65.7863H37.8617V73.86H37.2992C37.4586 74.4656 37.1342 75.0188 36.4479 75.54C35.2948 76.4119 32.6698 77.235 30.1011 78.0431C29.4954 78.2344 28.8898 78.4256 28.3104 78.6113C30.0486 79.3444 31.7286 79.8863 33.4442 80.2219C35.8142 80.6888 38.2704 80.775 41.0811 80.4619C41.1186 80.4506 41.1561 80.4506 41.1973 80.4469C41.9567 80.3569 42.6861 80.1431 43.1642 79.7513C43.4886 79.485 43.6948 79.1194 43.6948 78.6188V76.8375V66.0263C43.6948 63.4913 42.3617 61.6725 40.5317 60.3863C38.9061 59.2331 36.8961 58.4888 35.0473 58.0313L35.1692 66.945C35.1748 67.0988 35.1373 67.2581 35.0567 67.4081C34.8167 67.86 34.2486 68.0344 33.7967 67.7906L28.5917 65.0156ZM28.5917 61.7719V62.8931L33.2848 65.3963L33.2004 59.2463L30.5848 60.6769C30.5417 60.7088 30.4948 60.735 30.4461 60.7575L28.5917 61.7719ZM23.7542 58.8225H25.8598C26.6154 58.8225 27.2942 59.13 27.7892 59.625C27.8848 59.7206 27.9748 59.8275 28.0554 59.9325L29.4898 59.145L30.1536 58.4869V54.2719V52.965C28.6067 54.24 26.8273 54.9694 24.9186 54.9694C23.1654 54.9694 21.7029 54.5344 20.4804 53.8106V58.4869L21.3467 59.3531L21.8304 59.6194C22.3254 59.1319 23.0061 58.8225 23.7542 58.8225ZM25.8598 60.6994H23.7542C23.5198 60.6994 23.3079 60.795 23.1542 60.9544C22.9948 61.1081 22.8992 61.3219 22.8992 61.5544V65.4713C22.8992 65.7056 22.9948 65.9175 23.1542 66.0769C23.3079 66.2306 23.5217 66.3263 23.7542 66.3263H25.8598C26.0942 66.3263 26.3117 66.2306 26.4654 66.0769C26.6192 65.9175 26.7148 65.7056 26.7148 65.4713V61.5544C26.7148 61.32 26.6192 61.1081 26.4654 60.9544C26.3117 60.795 26.0942 60.6994 25.8598 60.6994Z" fill="#0D4C8E"/>
</svg>
