<svg width="100" height="100" viewBox="0 0 100 100" fill="none" xmlns="http://www.w3.org/2000/svg">
<path d="M89.0625 26.5625H85.0313L76.1094 17.6406C75.9063 17.4375 75.6563 17.2969 75.375 17.2343C75.25 17.2031 75.125 17.1875 75 17.1875H67.8438L58.9219 8.26559C58.6344 7.97091 58.2209 7.8147 57.8125 7.8125H18.75C16.1719 7.8125 14.0625 9.92184 14.0625 12.5V26.5625H10.9375C6.62498 26.5625 3.125 30.0625 3.125 34.375V81.25C3.125 87.2812 8.03127 92.1875 14.0625 92.1875H85.9375C91.9687 92.1875 96.875 87.2812 96.875 81.25V34.375C96.875 30.0625 93.375 26.5625 89.0625 26.5625ZM70.3125 20.3125H73.4375V26.5625C73.4375 29.1406 75.5469 31.25 78.125 31.25H84.375V39.0625H78.125C78.0351 37.6973 78.4275 35.4124 77.672 34.8281L70.3125 27.4687V20.3125ZM68.75 37.5H75V39.0625H25V28.125C25 27.2656 25.7031 26.5625 26.5625 26.5625H64.0625V32.8125C64.0625 35.3906 66.1719 37.5 68.75 37.5ZM60.9375 21.875H67.1875V24.3437C66.7798 23.903 66.2744 23.4003 65.625 23.4375H34.375V21.875C34.375 21.0156 35.0781 20.3125 35.9375 20.3125H57.4532C58.3125 21.2656 59.5625 21.875 60.9375 21.875ZM17.1875 12.5C17.1875 11.6406 17.8906 10.9375 18.75 10.9375H56.25V17.1875H35.9375C33.3594 17.1875 31.25 19.2968 31.25 21.875V23.4375H26.5625C23.9844 23.4375 21.875 25.5468 21.875 28.125V39.0625H17.1875V12.5ZM93.75 81.25C93.75 85.5625 90.25 89.0625 85.9375 89.0625H14.0625C9.74998 89.0625 6.25 85.5625 6.25 81.25V40.625C7.54691 41.6094 9.17188 42.1875 10.9375 42.1875H89.0625C90.8281 42.1875 92.4532 41.6094 93.75 40.625V81.25Z" fill="white"/>
<path d="M71.875 54.6875V51.5625C71.875 48.1155 69.0712 45.3125 65.625 45.3125H34.375C30.9288 45.3125 28.125 48.1155 28.125 51.5625V54.6875C28.125 58.1345 30.9288 60.9375 34.375 60.9375H65.625C69.0712 60.9375 71.875 58.1345 71.875 54.6875ZM31.25 54.6875V51.5625C31.25 49.8398 32.6515 48.4375 34.375 48.4375H65.625C67.3485 48.4375 68.75 49.8398 68.75 51.5625V54.6875C68.75 56.4102 67.3485 57.8125 65.625 57.8125H34.375C32.6515 57.8125 31.25 56.4102 31.25 54.6875Z" fill="white"/>
<path d="M84.375 67.1875H62.5C59.9152 67.1875 57.8125 69.2902 57.8125 71.875V81.25C57.8125 83.8348 59.9152 85.9375 62.5 85.9375H84.375C86.9598 85.9375 89.0625 83.8348 89.0625 81.25V71.875C89.0625 69.2902 86.9598 67.1875 84.375 67.1875ZM83.9165 76.1063L80.7869 79.2313C80.1765 79.8386 79.1893 79.8386 78.5789 79.2313L76.5541 77.2095C73.3967 80.5195 73.4559 80.5117 70.3056 77.211C69.0244 78.3547 67.62 80.704 66.0767 79.2281C66.0767 79.2282 62.957 76.1032 62.957 76.1032C61.5203 74.6529 63.7182 72.4545 65.1681 73.8969C65.168 73.8968 67.1829 75.914 67.1829 75.914L69.2001 73.8953C69.7876 73.3093 70.8244 73.3093 71.4104 73.8953L73.4291 75.9155L75.4486 73.8953C76.059 73.2849 77.047 73.2864 77.6573 73.8937L79.6829 75.917L81.7085 73.8937C83.1623 72.4583 85.3553 74.6554 83.9165 76.1063Z" fill="white"/>
<path d="M20.7702 69.989L17.9687 72.7905V60.9375C17.9687 60.0739 17.2691 59.375 16.4062 59.375C15.5433 59.375 14.8437 60.0739 14.8437 60.9375V72.7905L12.0422 69.989C10.5951 68.5519 8.39171 70.7462 9.83281 72.1985C9.83271 72.1985 15.3004 77.6662 15.3004 77.6662C15.8817 78.2705 16.9308 78.2712 17.512 77.6662L22.9797 72.1985C24.4157 70.75 22.2234 68.5486 20.7702 69.989Z" fill="white"/>
</svg>
