<svg width="90" height="100" viewBox="0 0 90 100" fill="none" xmlns="http://www.w3.org/2000/svg">
<path d="M73.5713 32.1429H80.7159V37.5H73.5713V32.1429Z" fill="white"/>
<path d="M45.0007 67.8571C54.8629 67.8571 62.8578 59.8622 62.8578 50C62.8578 40.1378 54.8629 32.1429 45.0007 32.1429C35.1385 32.1429 27.1436 40.1378 27.1436 50C27.1544 59.8577 35.143 67.8463 45.0007 67.8571ZM45.0007 64.2857C44.0145 64.2857 43.215 63.4862 43.215 62.5C43.215 61.5138 44.0145 60.7143 45.0007 60.7143C45.9869 60.7143 46.7864 61.5138 46.7864 62.5C46.7864 63.4862 45.9869 64.2857 45.0007 64.2857ZM39.4382 37.6589C41.5888 35.9471 44.4065 35.3177 47.0811 35.9518C50.3633 36.7138 52.9261 39.2767 53.6882 42.5589C54.246 44.9026 53.8347 47.3722 52.5473 49.4085C51.2599 51.4448 49.2053 52.8756 46.8489 53.3768L46.7864 55.3571C46.7864 56.3434 45.9869 57.1429 45.0007 57.1429C44.0145 57.1429 43.215 56.3434 43.215 55.3571V53.3929C43.2189 51.6817 44.4359 50.2137 46.1168 49.8929C47.5352 49.5871 48.7699 48.7213 49.5409 47.4921C50.3119 46.2629 50.5537 44.7743 50.2114 43.3643C49.5793 40.7155 47.0606 38.9623 44.3571 39.2894C41.6537 39.6165 39.6257 41.9197 39.6436 44.6429C39.6436 45.6291 38.8441 46.4286 37.8578 46.4286C36.8716 46.4286 36.0721 45.6291 36.0721 44.6429C36.0661 41.9224 37.3064 39.349 39.4382 37.6589Z" fill="white"/>
<path d="M12.857 8.92857C13.8432 8.92857 14.6427 8.12908 14.6427 7.14286V1.78571C14.6427 0.799492 13.8432 0 12.857 0C11.8708 0 11.0713 0.799492 11.0713 1.78571V7.14286C11.0713 8.12908 11.8708 8.92857 12.857 8.92857Z" fill="white"/>
<path d="M73.5713 48.2143H80.7159V53.5714H73.5713V48.2143Z" fill="white"/>
<path d="M9.28613 32.1429H16.4308V37.5H9.28613V32.1429Z" fill="white"/>
<path d="M73.5713 64.2857H80.7159V69.6428H73.5713V64.2857Z" fill="white"/>
<path d="M74.2255 99.7518C74.8396 100.092 75.5884 100.078 76.1898 99.7161C76.7779 99.3761 77.1391 98.7472 77.1362 98.0679L77.1362 85.7143H48.4434L74.2255 99.7518Z" fill="white"/>
<path d="M34.2857 8.92857C35.2719 8.92857 36.0714 8.12908 36.0714 7.14286V1.78571C36.0714 0.799492 35.2719 0 34.2857 0C33.2995 0 32.5 0.799492 32.5 1.78571V7.14286C32.5 8.12908 33.2995 8.92857 34.2857 8.92857Z" fill="white"/>
<path d="M55.7144 8.92857C56.7006 8.92857 57.5001 8.12908 57.5001 7.14286V1.78571C57.5001 0.799492 56.7006 0 55.7144 0C54.7282 0 53.9287 0.799492 53.9287 1.78571V7.14286C53.9287 8.12908 54.7282 8.92857 55.7144 8.92857Z" fill="white"/>
<path d="M9.28613 64.2857H16.4308V69.6428H9.28613V64.2857Z" fill="white"/>
<path d="M77.1431 8.92857C78.1294 8.92857 78.9289 8.12908 78.9289 7.14286V1.78571C78.9289 0.799492 78.1294 0 77.1431 0C76.1569 0 75.3574 0.799492 75.3574 1.78571V7.14286C75.3574 8.12908 76.1569 8.92857 77.1431 8.92857Z" fill="white"/>
<path d="M0.357422 80.3571C0.357422 81.3434 1.15691 82.1429 2.14314 82.1429H87.8574C88.8437 82.1429 89.6431 81.3434 89.6431 80.3571V19.6429H0.357422V80.3571ZM70.0003 32.1429C70.0003 30.1704 71.5993 28.5714 73.5717 28.5714H80.7146C82.687 28.5714 84.286 30.1704 84.286 32.1429V37.5C84.286 39.4724 82.687 41.0714 80.7146 41.0714H73.5717C71.5993 41.0714 70.0003 39.4724 70.0003 37.5V32.1429ZM70.0003 48.2143C70.0003 46.2418 71.5993 44.6429 73.5717 44.6429H80.7146C82.687 44.6429 84.286 46.2418 84.286 48.2143V53.5714C84.286 55.5439 82.687 57.1429 80.7146 57.1429H73.5717C71.5993 57.1429 70.0003 55.5439 70.0003 53.5714V48.2143ZM70.0003 64.2857C70.0003 62.3133 71.5993 60.7143 73.5717 60.7143H80.7146C82.687 60.7143 84.286 62.3133 84.286 64.2857V69.6429C84.286 71.6153 82.687 73.2143 80.7146 73.2143H73.5717C71.5993 73.2143 70.0003 71.6153 70.0003 69.6429V64.2857ZM45.0003 28.5714C56.835 28.5714 66.4289 38.1653 66.4289 50C66.4289 61.8347 56.835 71.4286 45.0003 71.4286C33.1656 71.4286 23.5717 61.8347 23.5717 50C23.5845 38.1706 33.1709 28.5842 45.0003 28.5714ZM5.71457 32.1429C5.71457 30.1704 7.31355 28.5714 9.28599 28.5714H16.4289C18.4013 28.5714 20.0003 30.1704 20.0003 32.1429V37.5C20.0003 39.4724 18.4013 41.0714 16.4289 41.0714H9.28599C7.31355 41.0714 5.71457 39.4724 5.71457 37.5V32.1429ZM5.71457 48.2143C5.71457 46.2418 7.31355 44.6429 9.28599 44.6429H16.4289C18.4013 44.6429 20.0003 46.2418 20.0003 48.2143V53.5714C20.0003 55.5439 18.4013 57.1429 16.4289 57.1429H9.28599C7.31355 57.1429 5.71457 55.5439 5.71457 53.5714V48.2143ZM5.71457 64.2857C5.71457 62.3133 7.31355 60.7143 9.28599 60.7143H16.4289C18.4013 60.7143 20.0003 62.3133 20.0003 64.2857V69.6429C20.0003 71.6153 18.4013 73.2143 16.4289 73.2143H9.28599C7.31355 73.2143 5.71457 71.6153 5.71457 69.6429V64.2857Z" fill="white"/>
<path d="M87.8574 5.35715H82.5003V7.14286C82.5003 10.1015 80.1018 12.5 77.1431 12.5C74.1845 12.5 71.786 10.1015 71.786 7.14286V5.35715H61.0717V7.14286C61.0717 10.1015 58.6732 12.5 55.7146 12.5C52.7559 12.5 50.3574 10.1015 50.3574 7.14286V5.35715H39.6431V7.14286C39.6431 10.1015 37.2447 12.5 34.286 12.5C31.3273 12.5 28.9289 10.1015 28.9289 7.14286V5.35715H18.2146V7.14286C18.2146 10.1015 15.8161 12.5 12.8574 12.5C9.89875 12.5 7.50028 10.1015 7.50028 7.14286V5.35715H2.14314C1.15691 5.35715 0.357422 6.15664 0.357422 7.14286V16.0714H89.6431V7.14286C89.6431 6.15664 88.8437 5.35715 87.8574 5.35715Z" fill="white"/>
<path d="M9.28613 48.2143H16.4308V53.5714H9.28613V48.2143Z" fill="white"/>
</svg>
