<svg width="100" height="100" viewBox="0 0 100 100" fill="none" xmlns="http://www.w3.org/2000/svg">
<g clip-path="url(#clip0_447_1033)">
<path d="M64.1559 76.6016C64.0125 75.268 63.441 74.0167 62.5269 73.0351C61.6129 72.0534 60.4055 71.3943 59.0855 71.1562L45.023 68.4219C44.5336 68.323 44.0801 68.0936 43.7105 67.7578C42.7519 68.2778 41.7541 68.7218 40.7262 69.0859C40.9951 69.4455 41.2987 69.7778 41.6324 70.0781L33.5934 83.5469L25.5543 70.0781C25.8881 69.7778 26.1916 69.4455 26.4605 69.0859C25.4326 68.7218 24.4348 68.2778 23.4762 67.7578C23.1066 68.0936 22.6531 68.323 22.1637 68.4219L8.14023 71.1484C6.81881 71.3779 5.60738 72.0296 4.6876 73.0057C3.76782 73.9818 3.18926 75.2298 3.03867 76.5625L0.0152305 98.2187C-0.015903 98.4402 0.000817439 98.6657 0.0642636 98.8801C0.12771 99.0945 0.236406 99.2928 0.383017 99.4616C0.529629 99.6305 0.710746 99.7659 0.914148 99.8588C1.11755 99.9516 1.33851 99.9998 1.56211 100H65.6246C65.8482 99.9998 66.0692 99.9516 66.2726 99.8588C66.476 99.7659 66.6571 99.6305 66.8037 99.4616C66.9503 99.2928 67.059 99.0945 67.1224 98.8801C67.1859 98.6657 67.2026 98.4402 67.1715 98.2187L64.1559 76.6016ZM32.0309 96.875H3.35898L6.14023 76.9531C6.21055 76.2823 6.49822 75.6528 6.95942 75.1606C7.42061 74.6683 8.03006 74.3404 8.69492 74.2266L22.7574 71.4922C22.7615 71.4877 22.767 71.4849 22.773 71.4844C22.7965 71.5234 22.8043 71.5703 22.8277 71.6094L32.0309 87.0234V96.875ZM35.1559 96.875V87.0234L44.359 71.6094C44.3824 71.5703 44.3902 71.5234 44.4136 71.4844C44.4196 71.4849 44.4252 71.4877 44.4293 71.4922L58.5309 74.2344C59.1943 74.3569 59.7996 74.6924 60.255 75.1901C60.7104 75.6878 60.9911 76.3205 61.0543 76.9922L63.8277 96.875H35.1559Z" fill="white"/>
<path d="M15.4296 50.4844C15.4391 50.5245 15.4521 50.5637 15.4686 50.6016C15.8725 55.1458 17.9686 59.3725 21.3416 62.4444C24.7146 65.5162 29.1184 67.209 33.6804 67.1874C38.2425 67.1657 42.6301 65.4313 45.9738 62.3276C49.3175 59.2239 51.3734 54.9775 51.7342 50.4297C52.0467 49.1719 53.7577 41.3203 49.6249 34.7891C48.5805 33.1508 47.059 31.872 45.2655 31.125C45.109 31.0702 44.9574 31.0022 44.8124 30.9219C41.6014 27.8359 37.9217 26.4922 32.8592 26.5625C26.2811 26.6562 21.3671 29.2344 17.8358 34.4609C15.7761 37.6858 14.7361 41.4565 14.8514 45.2812C14.9232 47.0269 15.1164 48.7655 15.4296 50.4844ZM21.0936 47.6406C22.7811 45 24.1561 43.9297 25.9999 43.8125C28.4139 43.6562 30.7967 44.4062 33.2186 44.2031C35.6413 44.013 38.0086 43.3801 40.203 42.3359C41.3826 43.231 42.5095 44.1935 43.578 45.2187C44.953 46.6016 47.5467 49.5469 48.5702 50.7109C48.1472 54.3864 46.3873 57.7781 43.6256 60.2401C40.864 62.7021 37.2934 64.0626 33.5936 64.0626C29.8938 64.0626 26.3232 62.7021 23.5616 60.2401C20.7999 57.7781 19.0401 54.3864 18.6171 50.7109C19.5282 49.7596 20.3567 48.7325 21.0936 47.6406Z" fill="white"/>
<path d="M73.4528 10.1562H73.4138C72.3435 10.1562 70.9372 11.1719 71.1091 11.9766L73.445 21.0938L75.7732 11.9766C75.8982 11.1875 74.4997 10.1719 73.4528 10.1562Z" fill="white"/>
<path d="M73.4375 0C58.791 0 46.875 8.41141 46.875 18.75C46.9144 21.9144 47.9795 24.9806 49.9104 27.4879L49.3326 29.9131C50.4887 30.8035 51.4811 31.8881 52.2655 33.1184C53.1386 34.5078 53.8345 36.0008 54.337 37.5628L61.3304 35.4546C65.2198 36.8224 69.3146 37.5142 73.4375 37.5C88.084 37.5 100 29.0886 100 18.75C100 8.41141 88.084 0 73.4375 0ZM73.4375 30.4688C73.1285 30.4688 72.8264 30.3771 72.5694 30.2054C72.3125 30.0337 72.1122 29.7897 71.9939 29.5042C71.8757 29.2187 71.8447 28.9045 71.905 28.6014C71.9653 28.2983 72.1141 28.0199 72.3326 27.8014C72.5512 27.5829 72.8296 27.4341 73.1327 27.3738C73.4358 27.3135 73.7499 27.3444 74.0354 27.4627C74.321 27.581 74.565 27.7812 74.7367 28.0382C74.9084 28.2951 75 28.5972 75 28.9063C74.9996 29.3205 74.8348 29.7177 74.5419 30.0106C74.2489 30.3035 73.8518 30.4683 73.4375 30.4688ZM78.8594 12.4531C78.8438 12.5547 78.8281 12.6563 78.8047 12.75L76.4766 21.8672C76.3049 22.5397 75.9141 23.136 75.3659 23.5618C74.8177 23.9876 74.1434 24.2188 73.4492 24.2188C72.7551 24.2188 72.0807 23.9876 71.5325 23.5618C70.9844 23.136 70.5936 22.5397 70.4219 21.8672L68.0859 12.7578C68.0728 12.7169 68.0623 12.6751 68.0547 12.6328C67.9323 12.0293 67.9497 11.4057 68.1054 10.8099C68.2611 10.2141 68.5511 9.6618 68.9531 9.19531C69.4984 8.53621 70.1788 8.0019 70.9484 7.62854C71.7181 7.25519 72.5589 7.0515 73.4141 7.03125H73.5078C74.3378 7.07012 75.1511 7.27793 75.898 7.64197C76.6449 8.00601 77.3096 8.51862 77.8516 9.14844C78.2488 9.59344 78.5447 10.1194 78.7187 10.69C78.8927 11.2606 78.9407 11.8622 78.8594 12.4531Z" fill="white"/>
</g>
<defs>
<clipPath id="clip0_447_1033">
<rect width="100" height="100" fill="white"/>
</clipPath>
</defs>
</svg>
