<svg width="76" height="100" viewBox="0 0 76 100" fill="none" xmlns="http://www.w3.org/2000/svg">
<path d="M38 29.375C45.8152 29.375 50.0312 26.9361 50.0312 25.9375C50.0312 25.3205 47.9498 23.6773 43.1562 22.9039V24.2187C43.1562 24.6746 42.9752 25.1118 42.6528 25.4341C42.3305 25.7564 41.8933 25.9375 41.4375 25.9375H34.5625C34.1067 25.9375 33.6695 25.7564 33.3472 25.4341C33.0248 25.1118 32.8438 24.6746 32.8438 24.2187V22.9039C28.0502 23.6773 25.9688 25.3205 25.9688 25.9375C25.9688 26.9361 30.1848 29.375 38 29.375Z" fill="white"/>
<path d="M31.2334 32.1697C31.4837 33.7847 32.3034 35.257 33.5444 36.3205C34.7854 37.3839 36.3658 37.9685 38.0001 37.9685C39.6344 37.9685 41.2149 37.3839 42.4559 36.3205C43.6968 35.257 44.5165 33.7847 44.7668 32.1697C40.2964 33.0268 35.7038 33.0268 31.2334 32.1697Z" fill="white"/>
<path d="M35.4219 16.6562C35.6832 16.8071 35.9001 17.0241 36.051 17.2853C36.2018 17.5466 36.2812 17.843 36.2813 18.1447V22.5H39.7188V18.143C39.7188 17.8413 39.7982 17.5449 39.949 17.2836C40.0999 17.0223 40.3169 16.8054 40.5781 16.6545C41.5611 16.087 42.3294 15.211 42.7638 14.1623C43.1981 13.1136 43.2743 11.9509 42.9806 10.8546C42.6868 9.75816 42.0394 8.78934 41.1389 8.09836C40.2384 7.40737 39.1351 7.03284 38 7.03284C36.8649 7.03284 35.7616 7.40737 34.8611 8.09836C33.9606 8.78934 33.3132 9.75816 33.0194 10.8546C32.7257 11.9509 32.8019 13.1136 33.2362 14.1623C33.6706 15.211 34.4389 16.087 35.4219 16.6545V16.6562Z" fill="white"/>
<path d="M62.0626 79.2187C60.9636 79.2071 59.8782 79.4618 58.8991 79.9612C57.9201 80.4606 57.0767 81.1898 56.441 82.0863C55.8053 82.9829 55.3962 84.0201 55.2489 85.1092C55.1016 86.1983 55.2203 87.3069 55.595 88.3401L66.6225 80.9873C65.3732 79.8548 63.7488 79.2247 62.0626 79.2187Z" fill="white"/>
<path d="M57.5029 91.2002C58.6283 92.2322 60.0672 92.857 61.5897 92.9746C63.1121 93.0922 64.6299 92.6957 65.9003 91.8486C67.1708 91.0015 68.1204 89.7528 68.5972 88.3022C69.074 86.8516 69.0505 85.283 68.5304 83.8474L57.5029 91.2002Z" fill="white"/>
<path d="M72.375 0.15625H3.625C2.71332 0.15625 1.83898 0.518414 1.19432 1.16307C0.549665 1.80773 0.1875 2.68207 0.1875 3.59375V96.4062C0.1875 97.3179 0.549665 98.1923 1.19432 98.8369C1.83898 99.4816 2.71332 99.8438 3.625 99.8438H72.375C73.2867 99.8438 74.161 99.4816 74.8057 98.8369C75.4503 98.1923 75.8125 97.3179 75.8125 96.4062V3.59375C75.8125 2.68207 75.4503 1.80773 74.8057 1.16307C74.161 0.518414 73.2867 0.15625 72.375 0.15625ZM53.4688 68.9062H70.6562V72.3438H53.4688V68.9062ZM13.9375 63.75V60.3125H62.0625V63.75H13.9375ZM32.8438 19.4234V19.0625C31.4008 17.9803 30.3349 16.4715 29.7971 14.7499C29.2594 13.0282 29.2769 11.181 29.8473 9.46992C30.4176 7.7588 31.5119 6.27052 32.9751 5.21589C34.4384 4.16126 36.1963 3.59375 38 3.59375C39.8037 3.59375 41.5616 4.16126 43.0249 5.21589C44.4881 6.27052 45.5824 7.7588 46.1527 9.46992C46.7231 11.181 46.7407 13.0282 46.2029 14.7499C45.6651 16.4715 44.5992 17.9803 43.1562 19.0625V19.4234C48.3933 20.178 53.4688 22.2078 53.4688 25.9375C53.4688 28.2716 51.3805 30.0247 48.3125 31.178C48.2278 33.8552 47.1047 36.3945 45.181 38.2583C43.2572 40.1222 40.6837 41.1644 38.0052 41.1644C35.3266 41.1644 32.7531 40.1222 30.8293 38.2583C28.9056 36.3945 27.7825 33.8552 27.6978 31.178C24.6247 30.0247 22.5416 28.2716 22.5416 25.9375C22.5312 22.2078 27.6067 20.178 32.8438 19.4234ZM10.5 46.5625H65.5V53.4375H10.5V46.5625ZM29.4062 89.5312H5.34375V86.0938H29.4062V89.5312ZM29.4062 80.9375H5.34375V77.5H29.4062V80.9375ZM29.4062 72.3438H5.34375V68.9062H29.4062V72.3438ZM72.375 86.0938C72.3779 88.1596 71.7593 90.1786 70.5998 91.8884C69.4403 93.5982 67.7933 94.9198 65.8729 95.6814C63.9525 96.443 61.8475 96.6094 59.8312 96.1591C57.815 95.7087 55.9809 94.6624 54.567 93.1561L52.7039 94.3988L50.7961 91.5387L52.6558 90.2995C51.6583 88.077 51.4809 85.5728 52.1552 83.2318C52.8296 80.8909 54.3119 78.8648 56.3389 77.5135C58.3659 76.1621 60.8062 75.5731 63.2265 75.851C65.6467 76.1289 67.89 77.2558 69.558 79.0314L71.4211 77.7887L73.3289 80.6488L71.4692 81.888C72.0657 83.2099 72.3745 84.6435 72.375 86.0938Z" fill="white"/>
</svg>
