<svg width="96" height="96" viewBox="0 0 96 96" fill="none" xmlns="http://www.w3.org/2000/svg">
<path d="M47.9999 0C29.4733 0 14.3999 15.0719 14.3999 33.6C14.3999 42.2047 17.2897 50.7008 22.5358 57.5219L42.4546 83.4156C36.9858 83.8289 27.1999 85.182 27.1999 89.6C27.1999 94.6531 40.2749 96 47.9999 96C55.7249 96 68.7999 94.6531 68.7999 89.6C68.7999 85.182 59.014 83.8289 53.5452 83.4156L73.464 57.5219C75.3452 55.075 76.9116 52.4062 78.1632 49.6H78.3999C78.3999 49.4531 78.3741 49.3102 78.3663 49.1648C80.478 44.2703 81.5999 38.957 81.5999 33.6C81.5999 15.0719 66.5265 0 47.9999 0ZM23.9999 54.0477V49.6C23.9999 46.3586 26.446 43.6398 29.6929 43.2781C30.3296 43.2078 30.8624 42.7633 31.0476 42.1508C31.2335 41.5375 31.0335 40.8719 30.5437 40.4609C29.4335 39.5359 28.7999 38.2016 28.7999 36.8C28.7999 34.1539 30.9538 32 33.5999 32C36.246 32 38.3999 34.1539 38.3999 36.8C38.3999 38.2016 37.7663 39.5359 36.6577 40.4625C36.1663 40.8734 35.9663 41.5375 36.1538 42.1523C36.3374 42.7648 36.8702 43.2094 37.5085 43.2797C40.2671 43.5875 42.4304 45.6016 43.0241 48.1875C41.1952 49.6547 39.9999 51.8781 39.9999 54.4C39.9999 55.707 40.328 56.9875 40.9437 58.1344C37.4226 60.4719 35.2241 64.4563 35.2046 68.7391L25.0749 55.5695C24.6944 55.0766 24.3522 54.5586 23.9999 54.0477ZM52.0608 60.1117C55.4272 61.6898 57.5999 65.0992 57.5999 68.8V72.8945L47.9999 85.3742L38.3999 72.8945V68.8C38.3999 65.0992 40.5726 61.6898 43.939 60.1117C44.3968 59.8977 44.7265 59.4781 44.8288 58.9805C44.928 58.4828 44.789 57.9695 44.4491 57.5922C43.6429 56.6992 43.1999 55.5648 43.1999 54.4C43.1999 51.7539 45.3538 49.6 47.9999 49.6C50.646 49.6 52.7999 51.7539 52.7999 54.4C52.7999 55.5648 52.3569 56.6992 51.5522 57.5938C51.2124 57.9695 51.0718 58.4852 51.1726 58.982C51.2733 59.4781 51.603 59.8977 52.0608 60.1117ZM65.5507 89.6016C64.653 90.8063 58.3522 92.8 47.9999 92.8C37.6476 92.8 31.3468 90.8063 30.4491 89.6016C31.1983 88.6336 36.0015 86.8445 44.8108 86.4797L46.7312 88.9742C47.0335 89.3695 47.5022 89.6 47.9999 89.6C48.4976 89.6 48.9663 89.3695 49.2687 88.9758L51.189 86.4813C59.9983 86.8461 64.8015 88.6352 65.5507 89.6016ZM70.9265 55.5695L60.7968 68.7391C60.7757 64.4563 58.5788 60.4719 55.0577 58.1344C55.6718 56.9875 55.9999 55.707 55.9999 54.4V49.6C55.9999 46.3586 58.446 43.6398 61.6929 43.2781C62.3296 43.2078 62.8624 42.7633 63.0476 42.1508C63.2335 41.5375 63.0335 40.8719 62.5436 40.4609C61.4335 39.5359 60.7999 38.2016 60.7999 36.8C60.7999 34.1539 62.9538 32 65.5999 32C68.246 32 70.3999 34.1539 70.3999 36.8C70.3999 38.2016 69.7663 39.5359 68.6577 40.4625C68.1663 40.8734 67.9663 41.5375 68.1538 42.1523C68.3374 42.7648 68.8702 43.2094 69.5085 43.2797C72.4061 43.6031 74.6546 45.8078 75.1054 48.582C73.9772 51.0531 72.5905 53.4062 70.9265 55.5695ZM72.5171 40.7844C73.2194 39.582 73.5999 38.2125 73.5999 36.8C73.5999 32.3891 70.0108 28.8 65.5999 28.8C61.189 28.8 57.5999 32.3891 57.5999 36.8C57.5999 38.2125 57.9804 39.582 58.6827 40.7844C55.6366 42.0563 53.4241 44.8289 52.9132 48.1344C51.5538 47.0656 49.8608 46.4 47.9999 46.4C47.2851 46.4 46.6046 46.525 45.9452 46.7008C45.096 44.0398 43.1101 41.8672 40.5171 40.7844C41.2194 39.582 41.5999 38.2125 41.5999 36.8C41.5999 32.3891 38.0108 28.8 33.5999 28.8C29.189 28.8 25.5999 32.3891 25.5999 36.8C25.5999 38.2125 25.9804 39.582 26.6827 40.7844C23.5116 42.107 21.2655 45.0641 20.8796 48.5484C18.7507 43.8734 17.5999 38.7633 17.5999 33.6C17.5999 16.8367 31.2366 3.2 47.9999 3.2C64.7632 3.2 78.3999 16.8367 78.3999 33.6C78.3999 37.218 77.8194 40.8063 76.7538 44.2445C75.7186 42.7234 74.2546 41.5086 72.5171 40.7844Z" fill="#0D4C8E"/>
<path d="M45.1189 38.1118L44.4814 41.2478C45.6338 41.4813 46.8158 41.6001 48.0002 41.6001C50.4463 41.6001 52.8158 41.1071 55.04 40.1345L53.7604 37.2017C51.0596 38.3806 48.0018 38.6993 45.1189 38.1118Z" fill="#0D4C8E"/>
<path d="M47.9999 6.3999C38.296 6.3999 30.3999 14.296 30.3999 23.9999H33.5999C33.5999 16.0608 40.0593 9.5999 47.9999 9.5999C55.9405 9.5999 62.3999 16.0608 62.3999 23.9999H65.5999C65.5999 14.296 57.7038 6.3999 47.9999 6.3999Z" fill="#0D4C8E"/>
<path d="M48.9998 13.1508C48.4154 12.6828 47.5842 12.6828 46.9998 13.1508L38.9998 19.5508C38.4701 19.9742 38.2654 20.6883 38.4912 21.3297C38.717 21.9711 39.3201 22.4 39.9998 22.4H41.5998V28.8C41.5998 29.6828 42.3146 30.4 43.1998 30.4H52.7998C53.685 30.4 54.3998 29.6828 54.3998 28.8V22.4H55.9998C56.6795 22.4 57.285 21.9711 57.5084 21.3297C57.7326 20.6883 57.5295 19.9742 56.9998 19.5508L48.9998 13.1508ZM47.9998 16.4492L51.4381 19.2H44.56L47.9998 16.4492ZM51.1998 27.2H44.7998V22.4H51.1998V27.2Z" fill="#0D4C8E"/>
</svg>
