<svg width="90" height="90" viewBox="0 0 90 90" fill="none" xmlns="http://www.w3.org/2000/svg">
<path fill-rule="evenodd" clip-rule="evenodd" d="M41.3552 73.89H35.0102C34.4702 73.89 34.1102 73.485 34.1102 72.99V61.83C34.1102 61.335 34.4702 60.93 35.0102 60.93H40.1402C40.6352 60.93 41.0402 61.335 41.0402 61.83V66.51C41.5802 66.51 42.2552 66.6 42.2552 67.41V72.99C42.2552 73.485 41.8502 73.89 41.3552 73.89ZM71.0552 83.385H18.9452C12.1502 83.385 6.61523 77.85 6.61523 71.055V7.51499C6.61523 7.01999 7.02023 6.61499 7.51523 6.61499H56.6552C72.6752 6.61499 85.2752 20.925 83.1602 36.9C83.2952 37.08 83.3852 37.305 83.3852 37.53V71.055C83.3852 77.85 77.8502 83.385 71.0552 83.385ZM46.8902 8.41499H8.41523V71.055C8.41523 76.86 13.1402 81.585 18.9452 81.585H50.8952V65.925C50.8952 64.755 52.3802 65.025 53.4602 65.025V60.12C42.5252 58.86 33.6152 50.895 30.6902 40.635H13.8152C13.3202 40.635 12.9152 40.23 12.9152 39.735V13.77C12.9152 13.275 13.3202 12.87 13.8152 12.87H39.3752C41.5802 11.025 44.1452 9.49499 46.8902 8.41499ZM62.1902 81.585H64.6652C63.7652 81 62.9102 80.325 62.1902 79.56V81.585ZM62.1902 76.68C64.1252 79.695 67.5002 81.585 71.0552 81.585C76.8602 81.585 81.5852 76.86 81.5852 71.055V42.975C80.8652 44.865 79.9652 46.665 78.8402 48.33V71.055C78.8402 75.33 75.3302 78.84 71.0552 78.84C69.8852 78.84 69.8852 77.04 71.0552 77.04C74.3402 77.04 77.0402 74.34 77.0402 71.055V50.715C76.1852 51.705 75.2852 52.65 74.2952 53.55V71.055C74.2952 72.81 72.8102 74.25 71.0552 74.25C69.3002 74.25 67.8152 72.81 67.8152 71.055V57.78C65.2952 58.995 62.5502 59.76 59.6252 60.12V65.025C60.7052 65.025 62.1902 64.755 62.1902 65.925V76.68ZM69.6152 56.835V71.055C69.6152 72.9 72.4952 72.9 72.4952 71.055V54.99C71.5952 55.665 70.6052 56.295 69.6152 56.835ZM37.3952 14.67H14.7152V38.835H30.2852C30.0152 37.575 29.8352 36.315 29.7452 35.01H18.3152C17.1452 35.01 17.1452 33.255 18.3152 33.255H29.7002C29.7002 32.175 29.7902 31.14 29.9252 30.105H18.3152C17.1452 30.105 17.1452 28.305 18.3152 28.305H30.1952C31.2302 23.04 33.7952 18.36 37.3952 14.67ZM28.9352 45.81H13.8152C12.6452 45.81 12.6452 44.01 13.8152 44.01H28.9352C30.1052 44.01 30.1052 45.81 28.9352 45.81ZM31.5002 34.02C31.9052 46.845 41.8052 57.375 54.4052 58.41C54.9002 58.455 55.2602 58.815 55.2602 59.31V65.025H57.8252V59.31C57.8252 58.815 58.1852 58.455 58.6352 58.41C71.5052 57.33 81.5852 46.395 81.5852 33.435C81.5852 19.665 70.3352 8.41499 56.5202 8.41499C42.3002 8.41499 31.1852 20.205 31.5002 34.02ZM26.0552 20.25H18.3152C17.1452 20.25 17.1452 18.495 18.3152 18.495H26.0552C27.2252 18.495 27.2252 20.25 26.0552 20.25ZM26.0552 25.2H18.3152C17.1452 25.2 17.1452 23.4 18.3152 23.4H26.0552C27.2252 23.4 27.2252 25.2 26.0552 25.2ZM31.0502 57.375H13.8152C13.3202 57.375 12.9152 56.97 12.9152 56.475V50.715C12.9152 50.22 13.3202 49.815 13.8152 49.815H31.0502C31.5452 49.815 31.9502 50.22 31.9502 50.715V56.475C31.9502 56.97 31.5452 57.375 31.0502 57.375ZM14.7152 55.575H30.1502V51.615H14.7152V55.575ZM60.3902 78.795H52.6952V81.495H60.3902V78.795ZM60.3902 76.995V66.825C57.8252 66.825 55.2602 66.825 52.6952 66.825V76.995H60.3902ZM56.5202 55.125C44.5502 55.125 34.8752 45.405 34.8752 33.435C34.8752 21.51 44.5952 11.79 56.5202 11.79C68.4452 11.79 78.1652 21.51 78.1652 33.435C78.1652 45.405 68.4452 55.125 56.5202 55.125ZM56.5202 13.59C45.5852 13.59 36.6752 22.5 36.6752 33.435C36.6752 38.52 38.5652 43.155 41.6702 46.665C43.1552 44.28 45.7652 42.795 48.6452 42.795H50.6702L51.1652 40.995C48.2852 39.375 46.8452 36.675 47.1602 33.39C45.8102 31.905 44.0552 26.235 46.5752 23.265C44.6402 20.655 45.4052 17.505 47.1152 18.45C47.2952 18.54 47.5652 18.72 47.9252 18.855C47.6102 17.415 48.5552 16.695 49.3202 17.145C51.1652 18.315 50.9852 17.28 53.0102 16.515C57.8252 14.715 66.0152 17.055 67.6352 23.265C68.6252 27 66.7802 31.95 65.9702 33.345C66.3752 36.855 64.9352 39.645 61.9652 41.22H61.9202L62.3702 42.795H64.3952C67.2302 42.795 69.8402 44.28 71.3252 46.665C74.4752 43.155 76.3652 38.52 76.3652 33.435C76.3652 22.5 67.4552 13.59 56.5202 13.59ZM42.9752 47.97C50.6252 55.08 62.4152 55.08 70.0202 47.97C68.9402 45.9 66.7802 44.595 64.3952 44.595H63.1802C63.5402 45.27 64.1252 45.945 63.4952 46.53L59.5352 50.445C59.1752 50.805 58.5452 50.805 58.2302 50.4L56.5202 48.465C53.7302 51.66 54.8102 51.75 49.5002 46.53C48.9152 45.945 49.4552 45.27 49.8152 44.595H48.6452C46.2602 44.595 44.1002 45.9 42.9752 47.97ZM52.3802 43.335L56.5202 46.035L60.6602 43.335L60.2552 41.895C57.8702 42.615 55.1702 42.57 52.8302 41.76L52.3802 43.335ZM61.3802 45L57.8702 47.295L58.9502 48.51L61.7852 45.72L61.3802 45ZM55.1702 47.295L51.6602 45L51.2552 45.72L54.0902 48.51L55.1702 47.295ZM60.4802 39.915L61.1102 39.6C63.5402 38.34 64.5752 36.225 64.1702 33.3L62.3252 28.26C61.5602 27.045 61.4702 27.09 60.3452 27.675C54.6752 30.51 51.3002 26.865 50.1302 27.585C49.0052 28.35 49.1852 32.22 48.9602 33.255C48.6002 36.135 49.7252 38.25 52.2902 39.555C54.7202 40.815 57.9602 40.95 60.4802 39.915ZM61.3802 25.47C63.4502 25.47 64.3052 28.26 65.1602 30.69C66.7802 25.875 66.6902 21.51 61.9202 19.035C58.9502 17.505 55.0802 17.19 52.5602 18.765C51.7952 19.26 51.1202 19.62 50.1302 19.44C50.3102 19.665 50.6702 19.98 50.4002 20.52C49.9052 21.555 47.9702 20.835 47.2952 20.52C47.5202 22.365 49.5002 23.13 48.3302 24.03C46.7552 25.335 46.8902 27.9 47.4302 29.745C47.8352 26.955 49.0952 24.84 51.9752 26.01C58.0502 28.485 59.1752 25.47 61.3802 25.47ZM20.1602 73.89H13.8152C13.3202 73.89 12.9152 73.485 12.9152 72.99V68.085C12.9152 66.915 14.7152 66.915 14.7152 68.085V72.09H19.2602V61.785C19.2602 60.615 21.0602 60.615 21.0602 61.785V72.99C21.0602 73.485 20.6552 73.89 20.1602 73.89ZM30.7352 73.89H24.3902C23.8952 73.89 23.4902 73.485 23.4902 72.99V61.785C23.4902 61.29 23.8952 60.885 24.3902 60.885H30.7802C31.2752 60.885 31.6802 61.29 31.6802 61.785V72.99C31.6352 73.485 31.2752 73.89 30.7352 73.89ZM25.2902 72.09H29.8802V62.685H25.2902V72.09ZM35.8652 66.51H39.2402V62.685H35.8652V66.51ZM35.8652 72.09H40.4552V68.31H35.8652V72.09Z" fill="black"/>
</svg>
