<svg width="86" height="86" viewBox="0 0 86 86" fill="none" xmlns="http://www.w3.org/2000/svg">
<path d="M26.1877 47.8558C26.1877 44.3626 23.3555 41.5305 19.8624 41.5305C16.3693 41.5305 13.5371 44.3626 13.5371 47.8558V52.0745C13.5371 55.5676 16.3693 58.3998 19.8624 58.3998C23.3555 58.3998 26.1877 55.5676 26.1877 52.0745C26.1877 51.6695 26.1877 48.3873 26.1877 47.8558Z" stroke="black" stroke-width="2" stroke-miterlimit="10" stroke-linecap="square"/>
<path d="M66.2041 58.4026C69.6972 58.4026 72.5294 55.5705 72.5294 52.0773C72.5294 51.6723 72.5294 48.3901 72.5294 47.8586C72.5294 44.3655 69.6972 41.5333 66.2041 41.5333C62.711 41.5333 59.876 44.3655 59.876 47.8586V52.0773C59.876 55.5676 62.7082 58.4026 66.2041 58.4026Z" stroke="black" stroke-width="2" stroke-miterlimit="10" stroke-linecap="square"/>
<path d="M52.7296 62.1264H33.9505C28.7643 62.1264 24.5596 65.3411 24.5596 69.3067V76.487V84.3901H32.6933H53.9868H62.1205V76.487C62.1205 76.487 62.1205 73.2723 62.1205 69.3067C62.1205 65.3411 57.9158 62.1264 52.7296 62.1264Z" stroke="black" stroke-width="2" stroke-miterlimit="10" stroke-linecap="square"/>
<path d="M43.3808 57.0133C47.6783 57.0133 51.163 53.5286 51.163 49.2311C51.163 48.7333 51.163 44.6945 51.163 44.042C51.163 39.7445 47.6783 36.2598 43.3808 36.2598C39.0833 36.2598 35.5986 39.7445 35.5986 44.042V49.2311C35.5986 53.5286 39.0805 57.0133 43.3808 57.0133Z" stroke="black" stroke-width="2" stroke-miterlimit="10" stroke-linecap="square"/>
<path d="M21.2294 63.0517H12.1956C7.97969 63.0517 4.5625 65.6645 4.5625 68.8904V74.7292V84.5842H19.2916" stroke="black" stroke-width="2" stroke-miterlimit="10" stroke-linecap="square"/>
<path d="M67.43 84.5842H81.4391V74.7292C81.4391 74.7292 81.4391 72.1164 81.4391 68.8904C81.4391 65.6673 78.0219 63.0517 73.8059 63.0517H65.4922" stroke="black" stroke-width="2" stroke-miterlimit="10" stroke-linecap="square"/>
<path d="M79.4004 43.4092L43.001 11.8698L6.60164 43.4092L1.42383 37.4355L43.001 1.41577L84.5754 37.4355L79.4004 43.4092Z" stroke="black" stroke-width="2" stroke-miterlimit="10" stroke-linecap="square"/>
</svg>
