<svg width="90" height="90" viewBox="0 0 90 90" fill="none" xmlns="http://www.w3.org/2000/svg">
<path d="M29.8778 32.9022H32.9702C33.7001 41.7033 40.7345 48.7386 49.5356 49.4685V52.56C49.5356 53.3952 50.2115 54.072 51.0476 54.072C51.8828 54.072 52.5596 53.3952 52.5596 52.56V49.4685C61.3607 48.7386 68.3951 41.7033 69.125 32.9022H72.2174C73.0526 32.9022 73.7294 32.2254 73.7294 31.3902C73.7294 30.555 73.0526 29.8782 72.2174 29.8782H69.125C68.3951 21.0771 61.3607 14.0418 52.5596 13.3119V10.2195C52.5596 9.38432 51.8828 8.70752 51.0476 8.70752C50.2115 8.70752 49.5356 9.38432 49.5356 10.2195V13.3119C40.7345 14.0418 33.7001 21.0771 32.9702 29.8782H29.8778C29.0417 29.8782 28.3658 30.555 28.3658 31.3902C28.3658 32.2263 29.0417 32.9022 29.8778 32.9022ZM49.5356 16.3449V19.3914C44.0726 20.0763 39.7328 24.4161 39.0488 29.8791H36.0023C36.7142 22.7457 42.4031 17.0559 49.5356 16.3449ZM52.5605 46.4364V43.3899C58.0235 42.705 62.3633 38.3652 63.0473 32.9022H66.0938C65.3819 40.0365 59.693 45.7245 52.5605 46.4364ZM51.0485 28.3662C52.7153 28.3662 54.0734 29.7225 54.0734 31.3902C54.0734 33.0588 52.7162 34.4151 51.0485 34.4151C49.3808 34.4151 48.0236 33.0588 48.0236 31.3902C48.0236 29.7225 49.3808 28.3662 51.0485 28.3662ZM52.5605 37.2402C54.6809 36.6912 56.3495 35.0226 56.8976 32.9022H59.9846C59.3447 36.6939 56.3522 39.6864 52.5605 40.3272V37.2402ZM56.8976 29.8791C56.3495 27.7587 54.6809 26.0901 52.5605 25.5411V22.4541C56.3522 23.094 59.3447 26.0865 59.9846 29.8791H56.8976ZM49.5356 25.5411C47.4152 26.0901 45.7466 27.7578 45.1976 29.8791H42.1115C42.7514 26.0874 45.7439 23.0949 49.5356 22.4541V25.5411ZM45.1985 32.9022C45.7475 35.0226 47.4152 36.6912 49.5365 37.2402V40.3272C45.7457 39.6873 42.7523 36.6939 42.1124 32.9022H45.1985ZM63.0473 29.8791C62.3624 24.4161 58.0226 20.0763 52.5605 19.3914V16.3449C59.693 17.0559 65.3828 22.7448 66.0938 29.8791H63.0473ZM39.0488 32.9022C39.7337 38.3652 44.0735 42.705 49.5356 43.3899V46.4364C42.4031 45.7245 36.7133 40.0365 36.0023 32.9022H39.0488ZM81.2912 65.5344C81.2912 66.9717 80.6252 68.4387 79.4309 69.633L71.8556 77.4351C69.602 79.8849 66.4124 81.2916 63.0707 81.2916H48.4016C47.5538 81.2916 46.8896 80.6112 46.8896 79.7796C46.8896 78.948 47.5538 78.2676 48.4016 78.2676H63.0698C65.5637 78.2676 67.9676 77.2092 69.6614 75.3642L69.6929 75.3345L77.2835 67.5162C77.918 66.8664 78.2663 66.1707 78.2663 65.5353C78.2519 64.9305 78.0098 64.4463 77.45 63.9333C76.9505 63.495 76.6184 63.4041 76.2548 63.4041H76.2242C75.9524 63.4041 74.939 63.5247 73.4567 65.1735L73.427 65.2185L67.3196 71.5221C66.1667 73.0035 64.9139 73.7307 63.491 73.7307H49.8992C49.0631 73.7307 48.3872 73.0539 48.3872 72.2187C48.3872 71.3835 49.0631 70.7067 49.8992 70.7067H63.491C63.6503 70.7067 64.1327 70.7004 64.9436 69.6528C65.0417 69.4584 65.1128 69.2757 65.1254 69.1047V69.0282C65.1254 68.9679 65.1407 68.9076 65.1407 68.8617C65.1254 67.8492 64.2947 67.0176 63.2813 67.0023H55.4486C53.1347 67.0023 50.9567 66.1104 49.3232 64.4769L46.3298 61.4826C44.6819 59.8347 42.4742 58.9113 40.1306 58.8969L31.2539 59.7285H25.3409V72.8685H28.562C28.8338 72.8685 29.0903 72.945 29.318 73.08C29.3333 73.08 29.3477 73.0953 29.3936 73.1259C30.6032 73.8063 33.7802 75.5145 37.0607 76.7862C37.4387 76.9365 37.7258 77.2092 37.8923 77.5872C38.0552 77.9427 38.0714 78.3414 37.9292 78.7131C37.9256 78.7212 37.9256 78.7293 37.922 78.7365C37.6961 79.326 37.1363 79.704 36.5162 79.704C36.32 79.704 36.1382 79.6734 35.9726 79.5987C32.5535 78.2829 29.3936 76.5747 28.1696 75.8934L25.3418 75.9033V78.2676C25.3418 79.1028 24.6659 79.7796 23.8298 79.7796H10.22C9.38481 79.7796 8.70801 79.1028 8.70801 78.2676C8.70801 77.4324 9.38391 76.7556 10.22 76.7556H22.3169V74.3967V58.2165V55.5858H10.22C9.38481 55.5858 8.70801 54.909 8.70801 54.0738C8.70801 53.2386 9.38391 52.5618 10.22 52.5618H23.8298C24.6659 52.5618 25.3418 53.2386 25.3418 54.0738V56.7045H31.1945L40.0712 55.8729C43.2464 55.8729 46.2254 57.0978 48.4781 59.3505L51.4724 62.3448C52.5146 63.3879 53.9663 63.9936 55.4495 63.9936H63.2822C65.1731 63.9936 66.8957 65.0817 67.6976 66.7908L71.2508 63.1161C72.9302 61.2864 74.5628 60.3936 76.2566 60.3792H76.2863C77.4203 60.3792 78.5543 60.8481 79.4777 61.695C80.6405 62.7219 81.3056 64.1133 81.2912 65.5344ZM43.8494 79.7796C43.8494 79.8102 43.853 79.8399 43.8503 79.8705C43.79 80.6562 43.124 81.2619 42.3527 81.2619C42.3068 81.2619 42.2609 81.2619 42.2168 81.2619C41.8226 81.2313 41.4608 81.0342 41.1872 80.7318C40.9298 80.4294 40.8092 80.0361 40.8407 79.6275C40.8425 79.5942 40.8524 79.5645 40.8578 79.5312C40.9649 78.7635 41.6462 78.192 42.458 78.2361C42.4742 78.2361 42.4742 78.2514 42.4895 78.2514C43.2743 78.3252 43.8719 79.0011 43.8494 79.7796Z" fill="black"/>
</svg>
