<svg width="96" height="96" viewBox="0 0 96 96" fill="none" xmlns="http://www.w3.org/2000/svg">
<path d="M91.5 48C91.1022 48 90.7206 48.158 90.4393 48.4393C90.158 48.7206 90 49.1022 90 49.5H84C83.6022 49.5 83.2206 49.658 82.9393 49.9393C82.658 50.2206 82.5 50.6022 82.5 51C82.5 51.3978 82.658 51.7794 82.9393 52.0607C83.2206 52.342 83.6022 52.5 84 52.5H90V88.5C89.9996 88.8977 89.8415 89.279 89.5603 89.5603C89.279 89.8415 88.8977 89.9996 88.5 90H63V52.5H66.7983C67.1961 52.5 67.5777 52.342 67.859 52.0607C68.1403 51.7794 68.2983 51.3978 68.2983 51C68.2983 50.6022 68.1403 50.2206 67.859 49.9393C67.5777 49.658 67.1961 49.5 66.7983 49.5H61.5C61.1022 49.5 60.7206 49.658 60.4393 49.9393C60.158 50.2206 60 50.6022 60 51V90H57V75C57 72.6131 56.0518 70.3239 54.364 68.636C52.6761 66.9482 50.3869 66 48 66C45.6131 66 43.3239 66.9482 41.636 68.636C39.9482 70.3239 39 72.6131 39 75V90H36V29.1212L47.1212 18H48.8788L58.9395 28.0605C59.2224 28.3337 59.6013 28.4849 59.9946 28.4815C60.3879 28.4781 60.7641 28.3203 61.0422 28.0422C61.3203 27.7641 61.4781 27.3879 61.4815 26.9946C61.4849 26.6013 61.3337 26.2224 61.0605 25.9395L50.5605 15.4395C50.4213 15.3002 50.256 15.1896 50.074 15.1142C49.892 15.0388 49.697 15 49.5 15V12H57C57.3978 12 57.7794 11.842 58.0607 11.5607C58.342 11.2794 58.5 10.8978 58.5 10.5V4.5C58.5 4.10218 58.342 3.72064 58.0607 3.43934C57.7794 3.15804 57.3978 3 57 3H48C47.6022 3 47.2206 3.15804 46.9393 3.43934C46.658 3.72064 46.5 4.10218 46.5 4.5V15C46.303 15 46.108 15.0388 45.926 15.1142C45.744 15.1896 45.5787 15.3002 45.4395 15.4395L33.4395 27.4395C33.1582 27.7207 33.0001 28.1022 33 28.5V39H18V37.5C18 35.9087 17.3679 34.3826 16.2426 33.2574C15.1174 32.1321 13.5913 31.5 12 31.5C10.4087 31.5 8.88258 32.1321 7.75736 33.2574C6.63214 34.3826 6 35.9087 6 37.5V39.2765C5.1251 39.5846 4.36704 40.156 3.82989 40.9122C3.29275 41.6685 3.00285 42.5724 3 43.5V88.5C3.00131 89.6931 3.47584 90.8369 4.31947 91.6805C5.1631 92.5242 6.30693 92.9987 7.5 93H88.5C89.6931 92.9987 90.8369 92.5242 91.6805 91.6805C92.5242 90.8369 92.9987 89.6931 93 88.5V49.5C93 49.1022 92.842 48.7206 92.5607 48.4393C92.2794 48.158 91.8978 48 91.5 48ZM55.5 9H49.5V6H55.5V9ZM12 34.5C12.7952 34.5015 13.5574 34.8181 14.1197 35.3803C14.6819 35.9426 14.9985 36.7048 15 37.5V39H9V37.5C9.00091 36.7046 9.31728 35.9421 9.87969 35.3797C10.4421 34.8173 11.2046 34.5009 12 34.5ZM6 43.5C6.00036 43.1023 6.15851 42.721 6.43973 42.4397C6.72096 42.1585 7.10228 42.0004 7.5 42H33V49.5H6V43.5ZM6 88.5V52.5H33V90H7.5C7.10228 89.9996 6.72096 89.8415 6.43973 89.5603C6.15851 89.279 6.00036 88.8977 6 88.5ZM42 90V75C42 73.4087 42.6321 71.8826 43.7574 70.7574C44.8826 69.6321 46.4087 69 48 69C49.5913 69 51.1174 69.6321 52.2426 70.7574C53.3679 71.8826 54 73.4087 54 75V90H42Z" fill="#0D4C8E"/>
<path d="M40.5 46.5C40.1022 46.5 39.7206 46.658 39.4393 46.9393C39.158 47.2206 39 47.6022 39 48V61.5C39 61.8978 39.158 62.2794 39.4393 62.5607C39.7206 62.842 40.1022 63 40.5 63H55.5C55.8978 63 56.2794 62.842 56.5607 62.5607C56.842 62.2794 57 61.8978 57 61.5V48C57 47.6022 56.842 47.2206 56.5607 46.9393C56.2794 46.658 55.8978 46.5 55.5 46.5H40.5ZM42 49.5H46.5V60H42V49.5ZM54 60H49.5V49.5H54V60Z" fill="#0D4C8E"/>
<path d="M28.5 55.5H10.5C10.1022 55.5 9.72064 55.658 9.43934 55.9393C9.15804 56.2206 9 56.6022 9 57V66C9 66.3978 9.15804 66.7794 9.43934 67.0607C9.72064 67.342 10.1022 67.5 10.5 67.5H28.5C28.8978 67.5 29.2794 67.342 29.5607 67.0607C29.842 66.7794 30 66.3978 30 66V57C30 56.6022 29.842 56.2206 29.5607 55.9393C29.2794 55.658 28.8978 55.5 28.5 55.5ZM12 58.5H18V64.5H12V58.5ZM27 64.5H21V58.5H27V64.5Z" fill="#0D4C8E"/>
<path d="M28.5 72H10.5C10.1022 72 9.72064 72.158 9.43934 72.4393C9.15804 72.7206 9 73.1022 9 73.5V82.5C9 82.8978 9.15804 83.2794 9.43934 83.5607C9.72064 83.842 10.1022 84 10.5 84H28.5C28.8978 84 29.2794 83.842 29.5607 83.5607C29.842 83.2794 30 82.8978 30 82.5V73.5C30 73.1022 29.842 72.7206 29.5607 72.4393C29.2794 72.158 28.8978 72 28.5 72ZM27 81H12V75H27V81Z" fill="#0D4C8E"/>
<path d="M87 57C87 56.6022 86.842 56.2206 86.5607 55.9393C86.2794 55.658 85.8978 55.5 85.5 55.5H67.5C67.1022 55.5 66.7206 55.658 66.4393 55.9393C66.158 56.2206 66 56.6022 66 57V66C66 66.3978 66.158 66.7794 66.4393 67.0607C66.7206 67.342 67.1022 67.5 67.5 67.5H85.5C85.8978 67.5 86.2794 67.342 86.5607 67.0607C86.842 66.7794 87 66.3978 87 66V57ZM69 58.5H75V64.5H69V58.5ZM84 64.5H78V58.5H84V64.5Z" fill="#0D4C8E"/>
<path d="M85.5 72H67.5C67.1022 72 66.7206 72.158 66.4393 72.4393C66.158 72.7206 66 73.1022 66 73.5V82.5C66 82.8978 66.158 83.2794 66.4393 83.5607C66.7206 83.842 67.1022 84 67.5 84H85.5C85.8978 84 86.2794 83.842 86.5607 83.5607C86.842 83.2794 87 82.8978 87 82.5V73.5C87 73.1022 86.842 72.7206 86.5607 72.4393C86.2794 72.158 85.8978 72 85.5 72ZM84 81H69V75H84V81Z" fill="#0D4C8E"/>
<path d="M48 25.5C46.22 25.5 44.4799 26.0278 42.9999 27.0168C41.5198 28.0057 40.3663 29.4113 39.6851 31.0558C39.0039 32.7004 38.8257 34.51 39.1729 36.2558C39.5202 38.0016 40.3774 39.6053 41.636 40.864C42.8947 42.1226 44.4984 42.9798 46.2442 43.3271C47.99 43.6743 49.7996 43.4961 51.4442 42.8149C53.0887 42.1337 54.4943 40.9802 55.4832 39.5001C56.4722 38.0201 57 36.28 57 34.5C56.9974 32.1139 56.0483 29.8262 54.3611 28.1389C52.6738 26.4517 50.3861 25.5026 48 25.5ZM48 40.5C46.8133 40.5 45.6533 40.1481 44.6666 39.4888C43.6799 38.8295 42.9109 37.8925 42.4567 36.7961C42.0026 35.6997 41.8838 34.4933 42.1153 33.3295C42.3468 32.1656 42.9183 31.0965 43.7574 30.2574C44.5965 29.4182 45.6656 28.8468 46.8295 28.6153C47.9933 28.3838 49.1998 28.5026 50.2961 28.9567C51.3925 29.4108 52.3295 30.1799 52.9888 31.1666C53.6481 32.1533 54 33.3133 54 34.5C53.9983 36.0908 53.3657 37.6159 52.2408 38.7408C51.1159 39.8657 49.5908 40.4983 48 40.5Z" fill="#0D4C8E"/>
<path d="M51 33H49.5V31.5C49.5 31.1022 49.342 30.7206 49.0607 30.4393C48.7794 30.158 48.3978 30 48 30C47.6022 30 47.2206 30.158 46.9393 30.4393C46.658 30.7206 46.5 31.1022 46.5 31.5V34.5C46.5 34.8978 46.658 35.2794 46.9393 35.5607C47.2206 35.842 47.6022 36 48 36H51C51.3978 36 51.7794 35.842 52.0607 35.5607C52.342 35.2794 52.5 34.8978 52.5 34.5C52.5 34.1022 52.342 33.7206 52.0607 33.4393C51.7794 33.158 51.3978 33 51 33Z" fill="#0D4C8E"/>
<path d="M86.4361 6.7162C86.2823 6.58816 86.1044 6.49221 85.9129 6.43399C85.7214 6.37578 85.5201 6.35647 85.3211 6.37722C85.122 6.39797 84.9291 6.45835 84.7537 6.55481C84.5783 6.65126 84.424 6.78184 84.2999 6.93885C84.1758 7.09586 84.0843 7.27612 84.0309 7.46902C83.9775 7.66192 83.9633 7.86356 83.989 8.06205C84.0148 8.26054 84.08 8.45187 84.1808 8.62477C84.2816 8.79767 84.416 8.94865 84.5761 9.0688C86.2692 10.3989 87.6375 12.0968 88.5772 14.034C89.517 15.9712 90.0035 18.0969 90.0001 20.2499V25.4999C90.0001 25.8978 90.1581 26.2793 90.4394 26.5606C90.7208 26.8419 91.1023 26.9999 91.5001 26.9999C91.8979 26.9999 92.2795 26.8419 92.5608 26.5606C92.8421 26.2793 93.0001 25.8978 93.0001 25.4999V20.2499C93.005 17.6438 92.4165 15.0708 91.2792 12.7259C90.1419 10.3811 88.4857 8.32589 86.4361 6.7162Z" fill="#0D4C8E"/>
<path d="M88.5 34.5H86.955C86.9717 34.2504 87 34.0037 87 33.75V20.25C86.998 18.2039 86.4384 16.1971 85.3812 14.4453C84.324 12.6935 82.8093 11.2629 81 10.3075V7.5C80.9987 6.30693 80.5242 5.1631 79.6805 4.31947C78.8369 3.47584 77.6931 3.00131 76.5 3H73.5C72.3069 3.00131 71.1631 3.47584 70.3195 4.31947C69.4758 5.1631 69.0013 6.30693 69 7.5V10.3075C67.1907 11.2629 65.676 12.6935 64.6188 14.4453C63.5616 16.1971 63.002 18.2039 63 20.25V33.75C63 34.0037 63.0277 34.2504 63.045 34.5H61.5C60.3069 34.5013 59.1631 34.9758 58.3195 35.8195C57.4758 36.6631 57.0013 37.8069 57 39V42C57.0013 43.1931 57.4758 44.3369 58.3195 45.1805C59.1631 46.0242 60.3069 46.4987 61.5 46.5H69.0612C68.9456 47.2457 68.9936 48.0077 69.2019 48.733C69.4102 49.4584 69.7737 50.1297 70.2674 50.7005C70.761 51.2714 71.3729 51.728 72.0606 52.0387C72.7483 52.3494 73.4954 52.5068 74.25 52.5H75.75C77.1422 52.4983 78.4773 51.9468 79.4649 50.9657C80.0468 50.3913 80.4839 49.6869 80.7401 48.9105C80.9964 48.1341 81.0645 47.3079 80.9388 46.5H88.5C89.6931 46.4987 90.8369 46.0242 91.6805 45.1805C92.5242 44.3369 92.9987 43.1931 93 42V39C92.9987 37.8069 92.5242 36.6631 91.6805 35.8195C90.8369 34.9758 89.6931 34.5013 88.5 34.5ZM72 9V7.5C72.0004 7.10228 72.1585 6.72096 72.4397 6.43973C72.721 6.15851 73.1023 6.00036 73.5 6H76.5C76.8977 6.00036 77.279 6.15851 77.5603 6.43973C77.8415 6.72096 77.9996 7.10228 78 7.5V9H72ZM66 33.75V20.25C66.0026 18.0628 66.8727 15.9659 68.4193 14.4193C69.9659 12.8727 72.0628 12.0026 74.25 12H75.75C77.9372 12.0026 80.0341 12.8727 81.5807 14.4193C83.1273 15.9659 83.9974 18.0628 84 20.25V33.75C84 34.005 83.9788 34.2526 83.956 34.5H66.044C66.0212 34.2526 66 34.005 66 33.75ZM78 47.25C78.0012 47.5458 77.9439 47.839 77.8312 48.1125C77.7186 48.386 77.5529 48.6346 77.3437 48.8437C77.1346 49.0529 76.886 49.2186 76.6125 49.3312C76.339 49.4439 76.0458 49.5012 75.75 49.5H74.25C73.8894 49.5024 73.5335 49.4175 73.2128 49.2526C72.8921 49.0877 72.6161 48.8476 72.4083 48.5529C72.2005 48.2581 72.0671 47.9175 72.0195 47.56C71.9719 47.2025 72.0116 46.8388 72.135 46.5H77.865C77.9522 46.7405 77.9979 46.9942 78 47.25ZM90 42C89.9996 42.3977 89.8415 42.779 89.5603 43.0603C89.279 43.3415 88.8977 43.4996 88.5 43.5H61.5C61.1023 43.4996 60.721 43.3415 60.4397 43.0603C60.1585 42.779 60.0004 42.3977 60 42V39C60.0004 38.6023 60.1585 38.221 60.4397 37.9397C60.721 37.6585 61.1023 37.5004 61.5 37.5H88.5C88.8977 37.5004 89.279 37.6585 89.5603 37.9397C89.8415 38.221 89.9996 38.6023 90 39V42Z" fill="#0D4C8E"/>
</svg>
